<svg version="1.2" xmlns="http://www.w3.org/2000/svg" viewBox="0 0 849 849" width="849" height="849">
	<title>11zon_cropped</title>
	<style>
		.s0 { fill: #232323 } 
		.s1 { fill: #ececec } 
	</style>
	<path class="s0" d="m408.06-0.2c1.83-0.01 1.83-0.01 3.71-0.02q3.87-0.01 7.75-0.02 5.77-0.02 11.54-0.07c89.91-0.39 179.76 31.83 250.94 86.31q0.99 0.76 2.02 1.54c6.82 5.21 13.42 10.59 19.74 16.41q3.17 2.89 6.43 5.67c3.18 2.77 6.15 5.69 9.1 8.7 1.67 1.64 3.4 3.13 5.21 4.62 3.28 2.75 5.99 5.81 8.76 9.07 1.63 1.87 3.33 3.58 5.12 5.3 3.73 3.68 6.97 7.68 10.25 11.76 2.33 2.87 4.72 5.68 7.12 8.49 56.83 68.13 93.12 161.57 93.45 250.5q0.01 1.83 0.02 3.71 0.01 3.87 0.02 7.75 0.02 5.77 0.07 11.54c0.39 89.91-31.83 179.76-86.31 250.94q-0.76 0.99-1.54 2.02c-5.21 6.82-10.59 13.42-16.41 19.74q-2.89 3.17-5.67 6.43c-2.77 3.18-5.69 6.15-8.7 9.1-1.64 1.67-3.13 3.4-4.62 5.21-2.75 3.28-5.81 5.99-9.07 8.76-1.87 1.63-3.58 3.33-5.3 5.12-3.68 3.73-7.68 6.97-11.76 10.25-2.87 2.33-5.68 4.72-8.49 7.12-68.13 56.83-161.57 93.12-250.5 93.45q-1.83 0.01-3.71 0.02-3.87 0.01-7.75 0.02-5.77 0.02-11.54 0.07c-89.91 0.39-179.76-31.83-250.94-86.31q-0.99-0.76-2.02-1.54c-6.82-5.21-13.42-10.59-19.74-16.41q-3.17-2.89-6.43-5.67c-3.18-2.77-6.15-5.69-9.1-8.7-1.67-1.64-3.4-3.13-5.21-4.62-3.28-2.75-5.99-5.81-8.76-9.07-1.63-1.87-3.33-3.58-5.12-5.3-3.73-3.68-6.97-7.68-10.25-11.76-2.33-2.87-4.72-5.68-7.12-8.49-56.83-68.13-93.12-161.57-93.45-250.5-0.01-1.83-0.01-1.83-0.02-3.71q-0.01-3.87-0.02-7.75-0.02-5.77-0.07-11.54c-0.39-89.91 31.83-179.76 86.31-250.94q0.76-0.99 1.54-2.02c5.21-6.82 10.59-13.42 16.41-19.74q2.89-3.17 5.67-6.43c2.77-3.18 5.69-6.15 8.7-9.1 1.64-1.67 3.13-3.4 4.62-5.21 2.75-3.28 5.81-5.99 9.07-8.76 1.87-1.63 3.58-3.33 5.3-5.12 3.68-3.73 7.68-6.97 11.76-10.25 2.87-2.33 5.68-4.72 8.49-7.12 68.13-56.83 161.57-93.12 250.5-93.45z"/>
	<path fill-rule="evenodd" class="s1" d="m584 425c3.74 2.62 5.95 5.09 8.19 9.06 0.73 1.29 0.73 1.29 1.48 2.6q0.65 1.15 1.33 2.34c0.99 1.49 0.99 1.49 2 3q0.38-0.94 0.78-1.91c4.08-9.11 10.41-15.8 19.84-19.46 8.5-2.24 16.69-0.67 24.38 3.37 6.27 4.34 10.23 8.91 13 16q0 1.48 0 3 0.98 0 2 0 0.31-1.48 0.63-3c2.51-8.59 8.77-13.79 16.37-18 5.63-2.75 11.87-2.86 18-2 8.36 3.08 15.78 7.27 20.31 15.13q0.77 1.29 1.55 2.63c1.14 2.24 1.14 2.24 1.14 4.24q0.99 0 2 0 0.28-1.2 0.56-2.44c3.17-7.85 8.65-14.1 16.44-17.56 3.13-0.81 3.13-0.81 7-1 1.57-0.13 1.57-0.13 3.16-0.26 9.74-0.49 16.29 1.5 23.71 7.87 5.66 5.93 8.32 13.27 8.63 21.39-0.39 9.54-3.9 16.2-10.39 23.08-2.85 2.59-5.64 4.26-9.11 5.92q0 0.99 0 2c1.53 1.05 1.53 1.05 3.5 2.06 7.1 4.27 13.3 10.84 15.5 18.94 1.01 10.25-0.64 18.77-7 27-3.62 4.01-7.57 6.96-12 10q0.86 0.64 1.75 1.3c7.58 5.74 15.23 11.97 17.25 21.7 1.02 10.84-1.34 19.62-8.16 28.18-6.63 6.56-13.92 8.89-23.03 9.26-8.07-0.08-12.99-2.94-18.84-8.3-6.29-6.66-9.17-12.95-9.41-22.14 0.36-10.34 2.85-16.86 10.44-24 2.95-2.43 5.05-4 9-4q0-1.48 0-3-1.23-0.25-2.5-0.5c-7.62-3.26-12.56-9.75-15.65-17.31-2.14-8.01-2.31-17.02 1.09-24.69 3.96-6.69 9.72-11.91 17.06-14.5q0-0.99 0-2-1.29-0.34-2.62-0.69c-7.53-2.92-11.46-8.49-15.38-15.31q-0.49-1.48-1-3-0.99 0-2 0-0.49 1.2-1 2.44c-3.84 7.68-10.13 13.71-18.12 16.75-8.92 1.87-17.81 1.5-25.94-2.81-6.15-4.97-10.1-10.05-12.94-17.38q-0.98-0.49-2-1c-0.22 1.42-0.22 1.42-0.44 2.88-2.14 7.38-8.72 13.44-15.18 17.25-7.31 3.18-15.73 3.27-23.32 0.98-7.82-3.59-13.9-9.62-18.06-17.11q0-1.97 0-4c-2.27 2.11-3.82 4.2-5.37 6.87-4.42 7.2-10.54 12.48-18.63 15.13-9.89 0.85-18.53 0.68-26.62-5.63-4.59-4.19-8.41-9.46-10.38-15.37-0.99-0.5-0.99-0.5-2-1q-0.17 1.09-0.34 2.22c-1.57 6.65-5.83 11.54-11.41 15.28-2.06 1.26-4.1 2.42-6.25 3.5q0 0.99 0 2 1.26 0.55 2.56 1.12c7.7 4.2 13.72 10.04 16.25 18.63 0.1 1.61 0.1 1.61 0.19 3.25q0.09 1.32 0.19 2.69c0.38 9.31-1.5 16.35-7.44 23.62-3.46 3.7-7.32 6.29-11.75 8.69 1.96 1.49 3.92 2.95 5.96 4.32 5.12 3.54 8.17 7.18 11.04 12.68q0.54 0.85 1.11 1.73c2.53 6.43 1.88 15.78 0.02 22.36-4.06 8.64-10.35 14.36-19.13 17.91-7.72 2.57-16.7 1.42-24-2-7.7-5.11-12.51-12.16-15-21-0.71-7.41-0.6-14.37 3-21q0.46-0.88 0.93-1.79c3.12-5.15 7.62-7.74 12.74-10.73 2.44-1.27 2.44-1.27 3.33-3.48q-1.09-0.14-2.22-0.29c-5.84-1.5-10.28-6.34-13.44-11.32-4.49-8.81-5.93-17.69-3.16-27.38 3.39-8.28 9.03-13.8 16.82-18.01q0.99 0 2 0 0-0.99 0-2-1.32-0.37-2.69-0.75c-7.22-2.73-11.96-8.55-15.36-15.35-2.8-7.28-3.28-15.7-0.82-23.15 3.61-8.07 9.05-13.64 16.87-17.75 6.92-2.43 17.16-2.21 23.94 0.56 7.21 3.87 12.63 9.01 16.06 16.44q0 1.48 0 3 0.99 0 2 0c0.34-1.27 0.34-1.27 0.69-2.56 3.12-8.18 8.6-13.27 16.18-17.48 10.22-4.55 20.68-2.17 30.13 3.04zm-387.51-180.66c3.02 2 5.28 3.8 7.51 6.66q0 0.99 0 2 0.99 0 2 0c3 5.62 3 5.62 3 9q1.48 0 3 0 0.12-1.29 0.25-2.63c1.59-7.17 6.74-12.4 12.75-16.37 8.84-3.65 18.98-4.6 28-1 6.32 3.94 12.18 8.93 15 16q0 1.97 0 4 0.99 0 2 0 0.31-1.23 0.62-2.5c3.58-9.1 10.06-14.43 18.71-18.63 6.53-2.13 14.38-2.01 20.85 0.23 8.64 4.49 14.37 9.82 17.82 18.9q0.99 0.49 2 1 0.28-1.23 0.56-2.5c2.88-7.01 8.76-12.9 15.44-16.5 7.54-2.96 15.59-3.45 23.33-0.9 8.55 4.03 15.45 9.28 19.01 18.24 1.96 7.91 1.84 16.56-2.34 23.66q-0.6 1.09-1.22 2.2c-4.18 7.01-9.41 10.76-16.72 14.17-8.02 1.64-17.22 1.46-24.41-2.75-6.39-4.61-12.07-10.68-13.65-18.62q-0.99 0-2 0-0.12 1.05-0.25 2.12c-1.82 7-7.03 11.8-12.75 15.88-7.82 4.49-15.89 5.35-24.67 3.41-7.61-2.56-13.62-7.84-17.71-14.74q-1.36-2.81-2.62-5.67-0.99-0.49-2-1-0.06 0.99-0.13 2c-2.33 7.99-9.44 14.09-15.87 19-7.32 2.44-17.14 2.42-24.39-0.25-6.8-4.11-12.74-9.96-15.67-17.46-0.71-2.45-0.71-2.45-2.94-3.29q-0.31 1.23-0.63 2.5c-3.21 8.18-9.1 13.72-16.37 18.5-7.41 2.47-17.46 2.28-24.56-1.06-7.27-4.34-13.36-10.52-16.01-18.71-1.8-9.39-1.17-18.19 3.59-26.56 10.3-13.9 26.58-16.74 41.47-8.33zm-54.82 302.61c2.18 1.92 3.63 3.59 5.14 6.05q0.63 0.98 1.27 2c0.92 2 0.92 2 0.92 6q1.48 0 3 0 0.06-1.23 0.12-2.5c1.5-6 5.06-10.13 9.94-13.81q1.45-0.83 2.94-1.69 1.29-0.83 2.62-1.69c6.14-3.39 13.47-3.11 20.19-1.73 8.4 2.62 15.55 7.82 19.97 15.52 1.22 2.9 1.22 2.9 1.22 5.9 2.73-1.36 2.93-2.85 4.12-5.63 3.69-7.5 8.57-11.7 16.32-14.81 8.22-2.61 14.75-2.22 22.78 0.99 8.31 4.34 13.95 10.52 16.78 19.45q0.47-0.88 0.95-1.79 0.64-1.18 1.3-2.4 0.62-1.16 1.27-2.35c3-4.98 6.08-8.16 11.04-11.21q1.42-0.88 2.88-1.8c6.43-3.65 14.27-3.44 21.36-1.8 9.46 3.44 16.14 9.93 20.45 18.97 2.27 10.23 0.89 19.72-4.65 28.63-5.2 6.7-12.54 10.97-20.91 12.26-8.53 0.3-15.14-1.76-22.38-6.14-4.26-4.37-8.37-9.54-10.31-15.37q-0.99-0.49-2-1c-0.22 1.42-0.22 1.42-0.44 2.87-1.89 6.53-7.31 12.15-13.01 15.62-8.14 3.69-16.45 4.91-25.18 2.45-7.98-3.02-13.72-9.34-17.37-16.94-0.81-3-0.81-3-1-5q-0.99 0-2 0-0.12 1.05-0.25 2.12c-0.93 3.59-2.57 5.9-4.75 8.88q-0.92 1.29-1.88 2.62c-5.17 5.79-11.77 8.9-19.39 9.74-9.13 0.36-15.97-0.97-22.79-7.26-3.54-3.84-7.94-8.63-7.94-14.1q-1.48 0-3 0-0.37 1.32-0.76 2.68c-2.84 7.58-8.78 13.09-16.05 16.44-8.66 3.1-17.36 3.26-25.8-0.6-6.94-4.41-12.14-11.12-14.8-18.88-2.13-9.59-0.44-17.16 3.97-25.64 12.93-15.9 29.96-16.85 46.11-5.05zm426.52-307.14q1.08 0 2.19 0c5.34 0.05 5.34 0.05 7.62 1.19q0 0.98 0 2c1.27 0.31 1.27 0.31 2.56 0.62 8.45 3.38 11.95 9.24 15.44 17.38 1.1-1.64 2.17-3.3 3.16-5.02 4.38-7.29 10.45-12.96 18.78-15.42q2.02-0.35 4.06-0.56 1.24-0.16 2.52-0.32c7.95-0.53 13.95 1.88 20.48 6.32 4.79 4.26 8.68 8.56 10 15q0.98 0 2 0 0.52-1.48 1.06-3c3.57-8.2 9.83-13.51 17.94-17 7.55-2.4 15.9-1.88 22.91 1.74 8 4.82 14.11 10.16 17.09 19.26 1 10.9-0.14 18.34-6.5 27.12-5.38 6.33-10.93 10.32-19.29 11.34-10.52 0.26-16.53-1.38-24.28-8.49-3.76-3.84-7.22-7.83-8.93-12.97q-0.98-0.49-2-1-0.25 1.45-0.5 2.94c-2.31 7.93-9.64 14.15-16.67 18.02-8.21 3.01-17.42 1.75-25.36-1.57-7.5-4.22-11.81-10.8-15.47-18.39-1.88 2.4-3.21 4.45-4.5 7.25-3.38 6.07-10.13 10.37-16.43 12.95-8.56 2.23-17.2 1.85-24.89-2.66-6.72-4.74-11.88-10.51-14.18-18.54-1.05-7.7-1.52-16.7 2.81-23.44q0.59-0.77 1.19-1.56 1.08-1.57 2.19-3.19c3.54-3.54 7.31-5.68 11.81-7.81q1.12-0.56 2.27-1.13c3.65-1.16 7.13-1.12 10.92-1.06zm192.99 62.01c6.89 4.48 11.83 10.16 14.47 18.14 1.79 10.41-0.26 19.08-5.96 27.85-3.31 4.33-7.5 7.46-12.69 9.19q0 0.98 0 2 0.87 0.42 1.76 0.85c5.69 2.92 9.59 5.89 13.24 11.15q0.62 0.82 1.25 1.66c4.11 6.51 3.92 14.95 2.75 22.34-3.07 9.9-9.06 16.55-18.06 21.44-6.28 2.6-13.28 1.88-19.94 1.56q0-0.99 0-2-1.23-0.03-2.5-0.06c-7.64-2.05-12.21-8.44-16.37-14.83-3.78-7.08-3.21-17.36-1.13-24.92 3.18-8.03 9.51-13.37 17-17.19q0.49-0.99 1-2-1.09-0.38-2.21-0.77c-6.69-2.96-12.31-8.85-15.79-15.23-2.64-7.72-2.41-19.24 1.06-26.63 3.96-6.51 8.97-11.86 16.15-14.71 8.4-1.99 18.29-2.06 25.97 2.16zm-233.93 4.3c5.95 5.66 8.86 11.42 9.39 19.68 0.22 9.5-2.19 17.18-8.61 24.42-3.68 3.45-7.03 5.66-12.03 6.78q0 0.98 0 2 1.32 0.37 2.68 0.75c6.66 2.51 12.6 8.07 15.95 14.37 2.89 7.88 2.61 17.46-0.19 25.32-4.25 8.91-10.3 13.99-19.44 17.56-7.33 2.26-15.06 1.82-21.87-1.69-8.13-5-13.17-11.13-16.13-20.31-1.37-9.56-0.03-17.92 5.32-25.99 3.45-4.39 7.67-7.56 12.68-10.01q0.99 0 2 0 0-0.99 0-2-1.26-0.31-2.56-0.63c-7.3-2.92-12.01-8.39-15.44-15.37-3.15-8.04-3.4-17.67-0.24-25.8 3.82-6.76 9.04-12.23 16.24-15.2 12.15-2.72 22.44-1.61 32.25 6.12zm-326.88 58.57c4.09 3.3 6.77 7.4 8.63 12.31q0 1.97 0 4 0.99 0 2 0 0.12-1.02 0.25-2.06c2.36-9.25 9.12-15.14 17.06-19.94 8.51-2.31 17.68-1.81 25.69 2 6.68 4.16 12.88 9.18 15 17 1.37 10 1.11 19.59-5 28q-0.88 1.26-1.79 2.56c-2.55 2.81-4.85 4.08-8.27 5.69q-1.56 0.75-3.16 1.52c-7.24 3.21-14.57 3.36-22.03 0.6-7.77-3.52-12.99-8.71-16.75-16.37-0.81-3-0.81-3-1-5q-0.99 0-2 0c-0.2 0.84-0.2 0.84-0.41 1.69-2.13 7.56-5.99 12.75-12.4 17.31-2.19 1-2.19 1-4.19 1q0 0.98 0 2c-3.64 1.21-7.02 1.22-10.81 1.25q-1.05 0.03-2.12 0.06c-4.82 0.04-7.95-0.86-12.07-3.31q-1.45-0.83-2.94-1.69c-6.24-4.71-10.44-9.88-13.06-17.31-0.28-2.75-0.43-5.2-0.37-7.94q0.01-1.05 0.03-2.13c0.23-7.94 2.19-13.45 7.61-19.33 12.37-11.42 28.51-11.09 42.11-1.91zm114.62 59.31c6.5 4 10.09 10 13.31 16.75 1.96 9.27 1.22 18.18-3.56 26.41-4.72 6.89-10.76 10.6-18.75 12.84-8.42 0.86-16.75 0.77-24-4-5.56-4.98-9.47-10-12-17-0.99-0.5-0.99-0.5-2-1q-0.17 1.09-0.34 2.22c-1.53 6.48-5.72 11.46-11.1 15.22-8.14 4.88-17.04 6.11-26.31 3.91-8.3-2.95-13.15-7.83-17.12-15.6-3.7-7.87-4.47-15.95-2.13-24.44 3.03-7.86 9.4-13.93 17-17.31 4.19-0.87 8.22-1.16 12.5-1.19q1.62-0.02 3.28-0.04c7.65 0.55 13.57 4.24 19.22 9.23 2.82 3.79 5 7.21 5 12 2.24-2.08 3.71-4.08 5.19-6.75 9.71-15.73 25.71-18.48 41.81-11.25zm42.72 55.78c9.83-0.49 15.26 2.58 22.66 8.72 5.29 4.86 7.33 9.09 7.93 16.19 0.39 9.64-0.31 17.28-6.31 25.31-2.46 2.49-4.98 4.26-8 6q-0.9 0.61-1.83 1.24c-6.7 4.09-14.42 3.78-21.91 2.17-8.85-2.99-15.1-9.52-19.32-17.72-3.09-7.67-3.12-15.15-0.38-22.94 3.91-8.52 9.85-14.09 18.44-17.75 2.95-0.85 5.67-0.97 8.72-1.22zm-224.78-180.01c7.11 3.61 13.88 10.82 17.12 18.1 2.34 7.93 1.73 16.25-1.65 23.74-3.82 6.49-9.27 12.72-16.35 15.58-8.34 2.11-18.41 2.01-26.06-2.19-7.33-5.17-11.17-10.52-14-19-0.58-10.08-0.74-18.49 5.13-27.13 9.33-10.42 22.59-12.55 35.81-9.1z"/>
</svg>